<?xml version="1.0" encoding="utf-8"?>
<!-- Svg Vector Icons : http://www.onlinewebfonts.com/icon -->
<!DOCTYPE svg PUBLIC "-//W3C//DTD SVG 1.1//EN" "http://www.w3.org/Graphics/SVG/1.1/DTD/svg11.dtd">
<svg version="1.1" xmlns="http://www.w3.org/2000/svg" xmlns:xlink="http://www.w3.org/1999/xlink" x="0px" y="0px" viewBox="0 0 1000 1000" enable-background="new 0 0 1000 1000" xml:space="preserve">
<metadata> Svg Vector Icons : http://www.onlinewebfonts.com/icon </metadata>
<g><path d="M710.7,836c2.1-27.1-5.4-36.1-33.2-34.9c-14,0.6-27.8,4.1-43.1,6.5c-1.4-5.8-2.9-12.2-4.6-19.4c27-9.9,53.1-16.6,81.1-9.9c19.5,4.7,32.2,16.7,32.8,36.5c1.3,39.1,0.4,78.3,0.4,118.8c-10.8-1.9-25.5,9-27.9-9.6c-16.4,4.2-32.8,10.9-49.6,12.3c-23.8,1.9-39-10.8-43.4-31c-5-23,4.2-46.3,25.1-53.9C667.7,844.2,688.8,841.2,710.7,836L710.7,836L710.7,836z M711.4,860.6c-14.9,2.2-27.9,3-40.4,6.2c-12.5,3.1-19,17-15.4,29.1c3.9,12.8,15.1,18.8,28.7,15.4c22.8-5.6,27.1-11.1,26.9-35.1C711.4,872.3,711.4,868.4,711.4,860.6L711.4,860.6L711.4,860.6z M455.3,933.4h-23.4c-1.4-3.8-2.8-7.7-4.4-12.1c-1.6,0.2-3.2-0.1-4.2,0.5c-13.8,10.2-28.9,16.1-46.5,15.2c-22-1.1-36-10.5-41.4-28.7c-6.2-20.8,0.6-44.2,19.4-53.7c14.4-7.3,31.3-9.9,47.3-13.8c6.5-1.6,13.5-1.2,20.1-1.7c3.5-28.5-5-38.6-31.9-38.1c-7.3,0.1-14.6,1.3-21.8,2.6c-7.1,1.3-14,3.4-21,5.1c-7.7-19.9-8.1-21.8,10.9-25.9c19.3-4.1,39.6-6.4,59.2-5c24.2,1.7,36.1,13.6,37.6,37.6c2.3,35.2,1.2,70.7,1.5,106C456.6,925.2,455.8,929,455.3,933.4L455.3,933.4L455.3,933.4z M422.2,860.9c-13.7,1.9-26.9,2.6-39.4,5.8c-12.6,3.1-18.5,16.1-15,29.1c3.2,11.8,13.3,18.9,25.8,15.8C424.7,904,426.7,898.7,422.2,860.9L422.2,860.9L422.2,860.9z M504.4,374.2c-30.2-30.2-65.1-56.7-81.1-98.7c-7.5-19.7-7.7-40,7.1-55.3c24.4-25.2,51.2-48.2,77.1-71.9c11.2-10.3,23.4-19.5,34.2-30.1C571.7,88.3,585.7,53,576,10c18.3,19.3,21.1,42.5,15.6,66.6c-9.5,41.2-37.2,70.3-67.8,97.1c-14.7,12.8-30.3,25-43.5,39.3c-30.8,33.2-32.9,65.9-8.3,104c11.8,18.3,24,36.4,36.1,54.5C506.7,372.4,505.6,373.3,504.4,374.2L504.4,374.2L504.4,374.2z M474.1,780.4c1.9-1,2.2-1.4,2.7-1.4c33.6-1.1,33.3-0.9,42.6,31.4c8.1,27.9,16.9,55.6,25.4,83.4c1.3,0.2,2.6,0.4,4,0.6c9.4-38.1,18.7-76.2,28.3-115h34c-7.9,30.1-14.8,58.9-23.2,87.2c-5.6,18.7-14,36.5-20.3,55.1c-3.4,10.3-9.5,14.1-19.8,12.5c-1.5-0.2-3-0.3-4.4,0c-16.6,3.4-24.1-3.7-28.6-19.9C502.3,869.6,487.9,825.4,474.1,780.4L474.1,780.4L474.1,780.4z M718,584.6c12.3,10.3-6.9,39.1-80.7,49.1c-398.2,40.9-377.9-6.9-378.4-17.1c-1.6-29.1,73.8-43.1,104.1-38.3c-20.3,7.9-75.9,42,1.2,44.7c55.4,2.9,110.9,6.9,166.2,4.9C582.5,626.2,717.4,605.5,718,584.6L718,584.6L718,584.6z M260.1,990c-5.4-6.5-10.3-12.4-16.5-20.1c31.6-14.8,34.1-42.2,33.7-71.9c-0.8-52.1-0.1-104.1-0.1-156.2c0-5.4,0-10.7,0-17.3h34.7c0.2,3.8,0.7,7.6,0.7,11.4c0,58,0.2,116-0.2,173.9C312,952.3,300.3,970.1,260.1,990L260.1,990L260.1,990z M656.9,146.2c-21.6,14.5-41,26.3-59,39.8c-13.2,9.9-25.9,21-36.7,33.6c-17.2,20.3-17.2,35.9-2.9,58.6c5.7,9.1,11.6,18.1,18,26.8c13.4,18.2,13,37.5,0.9,54.7c-10,14.1-24.2,25.3-38.7,40.2c-0.7-6.1-1.1-7.2-0.8-7.8c19-31,18.5-38.4-4.2-68.1c-28.1-36.7-33.1-69.2-11.7-99.9c10.1-14.4,23.9-28.2,39.1-36.8c27.5-15.6,57.3-27,86.1-40C648.9,146.6,651.3,146.9,656.9,146.2L656.9,146.2L656.9,146.2z M614.8,560C450.7,608.4,387,549.9,387,549.9l21.3-18.6c8.3,5.9,51.6,33.4,144.5,13.7L614.8,560L614.8,560z M425.2,379c0,0-102.7,36.9,7.2,39.5c15,0.3,215.5-15.3,215.5-15.3s-129.4,36.9-245,33.7C248,421.5,425.1,378.9,425.2,379L425.2,379L425.2,379z M401.3,453.3c0,0-15.2,29.3,28.6,30.4C534,486.4,609.9,468,609.9,468s16,20.5,16,22.6c0,0-139.5,32.2-218.9,12C356.2,489.6,389.8,459.1,401.3,453.3L401.3,453.3L401.3,453.3z M755,623.7c-264.9,76.4-398.8,40.1-398.8,40.1s56.9,48,199.4,20.5C608.5,674.1,703.2,646.1,755,623.7L755,623.7L755,623.7z M649.5,502.2c12-7.8,23.3-13.6,32.7-21.6c13.3-11.3,26.9-23,37.3-36.7c9.9-13,11.3-29.3,1.7-44.2c-9.8-15.2-50.2-16.4-55.7-17.3c2.6-2.1,7.8-6,7.8-6s19.9-5.2,45.9-2.1c35.9,7.9,48.2,46.3,26.3,76.1C727.4,475.1,681.9,500.2,649.5,502.2L649.5,502.2L649.5,502.2z"/></g>
</svg>